<svg width="66" height="24" viewBox="0 0 66 24" fill="none" xmlns="http://www.w3.org/2000/svg">
<path d="M8.168 17.12C7.576 17.12 6.996 17.036 6.428 16.868C5.868 16.692 5.396 16.452 5.012 16.148L5.684 14.936C5.988 15.184 6.356 15.384 6.788 15.536C7.22 15.688 7.672 15.764 8.144 15.764C8.704 15.764 9.14 15.652 9.452 15.428C9.764 15.196 9.92 14.884 9.92 14.492C9.92 14.108 9.776 13.804 9.488 13.58C9.2 13.356 8.736 13.244 8.096 13.244H7.328V12.176L9.728 9.32L9.932 9.908H5.42V8.6H11.144V9.644L8.744 12.5L7.928 12.02H8.396C9.428 12.02 10.2 12.252 10.712 12.716C11.232 13.172 11.492 13.76 11.492 14.48C11.492 14.952 11.372 15.388 11.132 15.788C10.892 16.188 10.524 16.512 10.028 16.76C9.54 17 8.92 17.12 8.168 17.12ZM12.3458 17V15.956L15.6818 12.788C15.9618 12.524 16.1698 12.292 16.3058 12.092C16.4418 11.892 16.5298 11.708 16.5698 11.54C16.6178 11.364 16.6418 11.2 16.6418 11.048C16.6418 10.664 16.5098 10.368 16.2458 10.16C15.9818 9.944 15.5938 9.836 15.0818 9.836C14.6738 9.836 14.3018 9.908 13.9658 10.052C13.6378 10.196 13.3538 10.416 13.1138 10.712L12.0218 9.872C12.3498 9.432 12.7898 9.092 13.3418 8.852C13.9018 8.604 14.5258 8.48 15.2138 8.48C15.8218 8.48 16.3498 8.58 16.7978 8.78C17.2538 8.972 17.6018 9.248 17.8418 9.608C18.0898 9.968 18.2138 10.396 18.2138 10.892C18.2138 11.164 18.1778 11.436 18.1058 11.708C18.0338 11.972 17.8978 12.252 17.6978 12.548C17.4978 12.844 17.2058 13.176 16.8218 13.544L13.9538 16.268L13.6298 15.68H18.5378V17H12.3458ZM22.9422 17.12C22.2782 17.12 21.6782 16.952 21.1422 16.616C20.6142 16.28 20.1982 15.792 19.8942 15.152C19.5902 14.504 19.4382 13.72 19.4382 12.8C19.4382 11.88 19.5902 11.1 19.8942 10.46C20.1982 9.812 20.6142 9.32 21.1422 8.984C21.6782 8.648 22.2782 8.48 22.9422 8.48C23.6142 8.48 24.2142 8.648 24.7422 8.984C25.2702 9.32 25.6862 9.812 25.9902 10.46C26.3022 11.1 26.4582 11.88 26.4582 12.8C26.4582 13.72 26.3022 14.504 25.9902 15.152C25.6862 15.792 25.2702 16.28 24.7422 16.616C24.2142 16.952 23.6142 17.12 22.9422 17.12ZM22.9422 15.764C23.3342 15.764 23.6742 15.66 23.9622 15.452C24.2502 15.236 24.4742 14.908 24.6342 14.468C24.8022 14.028 24.8862 13.472 24.8862 12.8C24.8862 12.12 24.8022 11.564 24.6342 11.132C24.4742 10.692 24.2502 10.368 23.9622 10.16C23.6742 9.944 23.3342 9.836 22.9422 9.836C22.5662 9.836 22.2302 9.944 21.9342 10.16C21.6462 10.368 21.4182 10.692 21.2502 11.132C21.0902 11.564 21.0102 12.12 21.0102 12.8C21.0102 13.472 21.0902 14.028 21.2502 14.468C21.4182 14.908 21.6462 15.236 21.9342 15.452C22.2302 15.66 22.5662 15.764 22.9422 15.764ZM32.5088 15.572L32.5448 13.688L35.8928 10.592H37.6928L34.8488 13.448L34.0568 14.108L32.5088 15.572ZM31.2848 17V8.096H32.7848V17H31.2848ZM36.1208 17L33.7808 14.108L34.7288 12.908L37.9448 17H36.1208ZM42.4657 17.084C41.9217 17.084 41.4377 16.964 41.0137 16.724C40.5897 16.484 40.2537 16.124 40.0057 15.644C39.7657 15.156 39.6457 14.54 39.6457 13.796C39.6457 13.044 39.7697 12.428 40.0177 11.948C40.2737 11.468 40.6137 11.112 41.0377 10.88C41.4697 10.64 41.9457 10.52 42.4657 10.52C43.0977 10.52 43.6537 10.656 44.1337 10.928C44.6217 11.2 45.0057 11.58 45.2857 12.068C45.5737 12.556 45.7177 13.132 45.7177 13.796C45.7177 14.46 45.5737 15.036 45.2857 15.524C45.0057 16.012 44.6217 16.396 44.1337 16.676C43.6537 16.948 43.0977 17.084 42.4657 17.084ZM38.9137 17V8.096H40.4137V12.08L40.2937 13.784L40.3417 15.488V17H38.9137ZM42.2977 15.8C42.6577 15.8 42.9777 15.72 43.2577 15.56C43.5457 15.4 43.7737 15.168 43.9417 14.864C44.1097 14.56 44.1937 14.204 44.1937 13.796C44.1937 13.38 44.1097 13.024 43.9417 12.728C43.7737 12.424 43.5457 12.192 43.2577 12.032C42.9777 11.872 42.6577 11.792 42.2977 11.792C41.9377 11.792 41.6137 11.872 41.3257 12.032C41.0377 12.192 40.8097 12.424 40.6417 12.728C40.4737 13.024 40.3897 13.38 40.3897 13.796C40.3897 14.204 40.4737 14.56 40.6417 14.864C40.8097 15.168 41.0377 15.4 41.3257 15.56C41.6137 15.72 41.9377 15.8 42.2977 15.8ZM50.6923 17.084C50.1723 17.084 49.6963 16.964 49.2643 16.724C48.8403 16.484 48.5003 16.124 48.2443 15.644C47.9963 15.156 47.8723 14.54 47.8723 13.796C47.8723 13.044 47.9923 12.428 48.2323 11.948C48.4803 11.468 48.8163 11.112 49.2402 10.88C49.6643 10.64 50.1483 10.52 50.6923 10.52C51.3243 10.52 51.8803 10.656 52.3603 10.928C52.8483 11.2 53.2323 11.58 53.5123 12.068C53.8003 12.556 53.9443 13.132 53.9443 13.796C53.9443 14.46 53.8003 15.04 53.5123 15.536C53.2323 16.024 52.8483 16.404 52.3603 16.676C51.8803 16.948 51.3243 17.084 50.6923 17.084ZM47.1403 19.328V10.592H48.5683V12.104L48.5203 13.808L48.6403 15.512V19.328H47.1403ZM50.5243 15.8C50.8843 15.8 51.2043 15.72 51.4843 15.56C51.7723 15.4 52.0003 15.168 52.1683 14.864C52.3363 14.56 52.4203 14.204 52.4203 13.796C52.4203 13.38 52.3363 13.024 52.1683 12.728C52.0003 12.424 51.7723 12.192 51.4843 12.032C51.2043 11.872 50.8843 11.792 50.5243 11.792C50.1643 11.792 49.8403 11.872 49.5523 12.032C49.2643 12.192 49.0363 12.424 48.8683 12.728C48.7003 13.024 48.6163 13.38 48.6163 13.796C48.6163 14.204 48.7003 14.56 48.8683 14.864C49.0363 15.168 49.2643 15.4 49.5523 15.56C49.8403 15.72 50.1643 15.8 50.5243 15.8ZM57.3468 17.084C56.8108 17.084 56.2948 17.016 55.7988 16.88C55.3108 16.736 54.9228 16.564 54.6348 16.364L55.2108 15.224C55.4988 15.408 55.8428 15.56 56.2428 15.68C56.6428 15.8 57.0428 15.86 57.4428 15.86C57.9148 15.86 58.2548 15.796 58.4628 15.668C58.6788 15.54 58.7868 15.368 58.7868 15.152C58.7868 14.976 58.7148 14.844 58.5708 14.756C58.4268 14.66 58.2388 14.588 58.0068 14.54C57.7748 14.492 57.5148 14.448 57.2268 14.408C56.9468 14.368 56.6628 14.316 56.3748 14.252C56.0948 14.18 55.8388 14.08 55.6068 13.952C55.3748 13.816 55.1868 13.636 55.0428 13.412C54.8988 13.188 54.8268 12.892 54.8268 12.524C54.8268 12.116 54.9428 11.764 55.1748 11.468C55.4068 11.164 55.7308 10.932 56.1468 10.772C56.5708 10.604 57.0708 10.52 57.6468 10.52C58.0788 10.52 58.5148 10.568 58.9548 10.664C59.3948 10.76 59.7588 10.896 60.0468 11.072L59.4708 12.212C59.1668 12.028 58.8588 11.904 58.5468 11.84C58.2428 11.768 57.9388 11.732 57.6348 11.732C57.1788 11.732 56.8388 11.8 56.6148 11.936C56.3988 12.072 56.2908 12.244 56.2908 12.452C56.2908 12.644 56.3628 12.788 56.5068 12.884C56.6508 12.98 56.8388 13.056 57.0708 13.112C57.3028 13.168 57.5588 13.216 57.8388 13.256C58.1268 13.288 58.4108 13.34 58.6908 13.412C58.9708 13.484 59.2268 13.584 59.4588 13.712C59.6988 13.832 59.8908 14.004 60.0348 14.228C60.1788 14.452 60.2508 14.744 60.2508 15.104C60.2508 15.504 60.1308 15.852 59.8908 16.148C59.6588 16.444 59.3268 16.676 58.8948 16.844C58.4628 17.004 57.9468 17.084 57.3468 17.084Z" fill="white"/>
<g filter="url(#filter0_b_1_525)">
<rect width="66" height="24" fill="#D9D9D9" fill-opacity="0.1"/>
</g>
<g clip-path="url(#clip0_1_525)">
<path d="M32.9993 5.33203C33.8834 5.33203 34.7312 5.68322 35.3564 6.30834C35.9815 6.93346 36.3327 7.78131 36.3327 8.66536V10.6654C36.8631 10.6654 37.3718 10.8761 37.7469 11.2512C38.122 11.6262 38.3327 12.1349 38.3327 12.6654V16.6654C38.3327 17.1958 38.122 17.7045 37.7469 18.0796C37.3718 18.4546 36.8631 18.6654 36.3327 18.6654H29.666C29.1356 18.6654 28.6269 18.4546 28.2518 18.0796C27.8767 17.7045 27.666 17.1958 27.666 16.6654V12.6654C27.666 12.1349 27.8767 11.6262 28.2518 11.2512C28.6269 10.8761 29.1356 10.6654 29.666 10.6654V8.66536C29.666 7.78131 30.0172 6.93346 30.6423 6.30834C31.2674 5.68322 32.1153 5.33203 32.9993 5.33203ZM32.9993 13.332C32.663 13.3319 32.339 13.459 32.0923 13.6877C31.8457 13.9164 31.6946 14.2299 31.6693 14.5654L31.666 14.6654C31.666 14.9291 31.7442 15.1869 31.8907 15.4061C32.0372 15.6254 32.2455 15.7963 32.4891 15.8972C32.7327 15.9981 33.0008 16.0245 33.2595 15.9731C33.5181 15.9216 33.7557 15.7946 33.9422 15.6082C34.1286 15.4217 34.2556 15.1841 34.3071 14.9255C34.3585 14.6668 34.3321 14.3988 34.2312 14.1551C34.1303 13.9115 33.9594 13.7032 33.7401 13.5567C33.5208 13.4102 33.2631 13.332 32.9993 13.332ZM32.9993 6.66536C32.4689 6.66536 31.9602 6.87608 31.5851 7.25115C31.2101 7.62622 30.9993 8.13493 30.9993 8.66536V10.6654H34.9993V8.66536C34.9993 8.13493 34.7886 7.62622 34.4136 7.25115C34.0385 6.87608 33.5298 6.66536 32.9993 6.66536Z" fill="#D1FD0A"/>
</g>
<defs>
<filter id="filter0_b_1_525" x="-4" y="-4" width="74" height="32" filterUnits="userSpaceOnUse" color-interpolation-filters="sRGB">
<feFlood flood-opacity="0" result="BackgroundImageFix"/>
<feGaussianBlur in="BackgroundImageFix" stdDeviation="2"/>
<feComposite in2="SourceAlpha" operator="in" result="effect1_backgroundBlur_1_525"/>
<feBlend mode="normal" in="SourceGraphic" in2="effect1_backgroundBlur_1_525" result="shape"/>
</filter>
<clipPath id="clip0_1_525">
<rect width="16" height="16" fill="white" transform="translate(25 4)"/>
</clipPath>
</defs>
</svg>
