<svg width="24" height="24" viewBox="0 0 24 24" fill="none" xmlns="http://www.w3.org/2000/svg">
<path d="M4.8002 2.39844C4.37585 2.39844 3.96888 2.56701 3.66882 2.86707C3.36877 3.16712 3.2002 3.57409 3.2002 3.99844V8.79844C3.20072 9.12982 3.30412 9.45287 3.49612 9.72296C3.68813 9.99306 3.95926 10.1969 4.27207 10.3063C4.44167 10.3665 4.62022 10.3976 4.8002 10.3984C4.80592 10.3985 4.81165 10.3985 4.81738 10.3984L14.4002 11.9984L4.81738 13.6C4.81166 13.5994 4.80593 13.5989 4.8002 13.5984C4.6197 13.5991 4.44061 13.6302 4.27051 13.6906C3.95799 13.8003 3.68719 14.0042 3.49549 14.2743C3.30378 14.5443 3.2006 14.8672 3.2002 15.1984V19.9984C3.2002 20.4228 3.36877 20.8298 3.66882 21.1298C3.96888 21.4299 4.37585 21.5984 4.8002 21.5984C5.07877 21.5979 5.35237 21.5247 5.59395 21.3859H5.59551L21.9127 12.7359L21.9143 12.7328C22.0582 12.6714 22.181 12.569 22.2674 12.4385C22.3537 12.308 22.3999 12.155 22.4002 11.9984C22.4004 11.8412 22.3543 11.6874 22.2676 11.5562C22.1809 11.4251 22.0574 11.3224 21.9127 11.2609L5.59551 2.61094C5.35348 2.47195 5.0793 2.39869 4.8002 2.39844Z" fill="#535457"/>
</svg>
