<svg width="24" height="24" viewBox="0 0 24 24" fill="none" xmlns="http://www.w3.org/2000/svg">
<path d="M10.4905 2C10.0115 2 9.60208 2.33859 9.51008 2.80859L9.17609 4.52344C8.35533 4.8338 7.59641 5.2674 6.93 5.81445L5.28547 5.24805C4.83247 5.09205 4.33406 5.27936 4.09406 5.69336L2.58625 8.30664C2.34725 8.72164 2.43423 9.2485 2.79523 9.5625L4.11359 10.709C4.04503 11.1303 4.00031 11.5593 4.00031 12C4.00031 12.4407 4.04503 12.8697 4.11359 13.291L2.79523 14.4375C2.43423 14.7515 2.34725 15.2784 2.58625 15.6934L4.09406 18.3066C4.33306 18.7216 4.83247 18.9089 5.28547 18.7539L6.93 18.1875C7.59619 18.7342 8.3557 19.1663 9.17609 19.4766L9.51008 21.1914C9.60208 21.6614 10.0115 22 10.4905 22H13.5101C13.9891 22 14.3985 21.6614 14.4905 21.1914L14.8245 19.4766C15.6453 19.1662 16.4042 18.7326 17.0706 18.1855L18.7152 18.752C19.1682 18.908 19.6666 18.7216 19.9066 18.3066L21.4144 15.6914C21.6534 15.2764 21.5664 14.7515 21.2054 14.4375L19.887 13.291C19.9556 12.8697 20.0003 12.4407 20.0003 12C20.0003 11.5593 19.9556 11.1303 19.887 10.709L21.2054 9.5625C21.5664 9.2485 21.6534 8.72164 21.4144 8.30664L19.9066 5.69336C19.6676 5.27836 19.1682 5.09109 18.7152 5.24609L17.0706 5.8125C16.4044 5.26579 15.6449 4.83366 14.8245 4.52344L14.4905 2.80859C14.3985 2.33859 13.9891 2 13.5101 2H10.4905ZM12.0003 8C14.2093 8 16.0003 9.791 16.0003 12C16.0003 14.209 14.2093 16 12.0003 16C9.79131 16 8.00031 14.209 8.00031 12C8.00031 9.791 9.79131 8 12.0003 8Z" fill="#8D9095"/>
</svg>
